<svg width="103" height="103" viewBox="0 0 103 103" fill="none" xmlns="http://www.w3.org/2000/svg">
<g clip-path="url(#clip0)">
<path d="M82.4807 100.959V82.1427C82.4807 77.0301 79.2169 72.4882 74.3712 70.8577L70.596 69.5875L67.5336 69.9307L64.4712 67.5267L57.1402 65.06C55.525 64.5164 54.4371 63.0026 54.4371 61.2983V54.8354H36.7756V61.2983C36.7756 63.0024 35.6877 64.5164 34.0725 65.06L26.7416 67.5267L23.7958 70.668L20.6167 69.5875L16.8415 70.8577C11.9959 72.4882 8.73206 77.0301 8.73206 82.1427V100.959C8.73206 102.087 9.64618 103.001 10.7737 103.001H20.6169L45.3256 99.9383L70.5958 103.001H80.439C81.5665 103.001 82.4807 102.087 82.4807 100.959Z" fill="#9DE4B6"/>
<path d="M74.371 70.857L70.5958 69.5868L67.5334 69.93L64.471 67.526L57.1399 65.0592C55.5246 64.5156 54.4367 63.0018 54.4367 61.2975V54.8344H48.3118V64.3599C48.3118 66.064 49.3998 67.5781 51.015 68.1216L68.2461 73.9196C73.0918 75.5501 76.3556 80.092 76.3556 85.2045V103H80.4388C81.5663 103 82.4805 102.086 82.4805 100.958V82.1419C82.4807 77.0293 79.2168 72.4875 74.371 70.857Z" fill="#A3D8B6"/>
<path d="M45.6061 72.128C51.1872 72.128 56.2092 69.736 59.7044 65.922L54.0776 65.0592C52.4624 64.5156 51.3745 63.0016 51.3745 61.2977V54.8346H36.7754V61.2977C36.7754 63.0018 35.6875 64.5158 34.0723 65.0592L31.5079 65.922C35.0031 69.736 40.0249 72.128 45.6061 72.128Z" fill="#FFE6D1"/>
<path d="M54.4369 54.8344H48.312V64.3599C48.312 66.064 49.3999 67.5781 51.0152 68.1216L55.2211 69.5369C56.8934 68.5618 58.4046 67.3405 59.7046 65.922C58.4362 65.4338 56.8071 65.1419 55.8437 64.3263C54.9698 63.5866 54.4371 62.4902 54.4369 61.2975V54.8344Z" fill="#F5CCAB"/>
<path d="M45.6061 61.1725C45.6061 61.1725 39.4297 61.726 36.7748 60.3872C30.3631 57.1541 25.9655 50.5102 25.9655 42.8393V30.8815H65.2467V42.8393C65.2467 50.5102 60.8491 57.1541 54.4373 60.3872C51.7825 61.7258 48.7824 61.1725 45.6061 61.1725Z" fill="#FFE6D1"/>
<path d="M59.1218 30.8813V42.8391C59.1632 44.1661 59.2248 50.5794 54.355 55.6659C49.9654 60.2508 43.2284 62.0245 36.7754 60.3859C38.221 61.1069 40.5429 62.0543 43.542 62.3719C43.542 62.3719 44.5994 62.4795 45.606 62.4795C56.4532 62.4795 65.2466 53.6861 65.2466 42.8389V30.8811H59.1218V30.8813Z" fill="#F5CCAB"/>
<path d="M66.5923 39.5747H65.2469V31.9745H66.5923C68.6911 31.9745 70.3924 33.6758 70.3924 35.7746C70.3924 37.8734 68.6909 39.5747 66.5923 39.5747Z" fill="#FFE6D1"/>
<path d="M24.62 39.5747H25.9655V31.9745H24.62C22.5212 31.9745 20.8199 33.6758 20.8199 35.7746C20.8199 37.8734 22.5212 39.5747 24.62 39.5747Z" fill="#F5CCAB"/>
<path d="M72.0135 31.9745H18.6365C16.1138 31.9745 14.0687 29.9294 14.0687 27.4067C14.0687 24.884 16.1138 22.8389 18.6365 22.8389H72.0135C74.5362 22.8389 76.5813 24.884 76.5813 27.4067C76.5813 29.9294 74.5364 31.9745 72.0135 31.9745Z" fill="#CE9D75"/>
<path d="M72.0135 22.8389H65.8886C68.4113 22.8389 70.4564 24.884 70.4564 27.4067C70.4564 29.9294 68.4113 31.9745 65.8886 31.9745H72.0135C74.5362 31.9745 76.5813 29.9294 76.5813 27.4067C76.5813 24.884 74.5364 22.8389 72.0135 22.8389Z" fill="#C68B5B"/>
<path d="M45.606 0C35.0948 0 26.5735 8.52104 26.5735 19.0325V22.839H64.6385V19.0325C64.6385 8.52104 56.1174 0 45.606 0Z" fill="#D7AD8B"/>
<path d="M45.606 0C44.5633 0 43.5408 0.0850957 42.5436 0.246436C51.5987 1.71137 58.5136 9.56371 58.5136 19.0323V22.8388H64.6385V19.0325C64.6385 8.52104 56.1174 0 45.606 0Z" fill="#CE9D75"/>
<path d="M84.4901 70.1456C84.4396 70.1456 84.3889 70.143 84.3374 70.138C83.4959 70.0547 82.8811 69.3047 82.9644 68.4632C83.0145 67.9581 83.1642 65.3314 81.1891 63.2462C79.3898 61.3468 77.0852 61.184 76.3567 61.184C76.3374 61.184 76.3197 61.1844 76.303 61.1842C75.4635 61.1842 74.7792 60.5073 74.7719 59.6662C74.7647 58.8204 75.4444 58.129 76.2899 58.1218C77.287 58.1103 80.7276 58.3062 83.4122 61.1404C86.2301 64.1153 86.1142 67.7283 86.0118 68.765C85.9339 69.5552 85.2678 70.1456 84.4901 70.1456Z" fill="#9DE4B6"/>
<path d="M84.5505 70.1456C83.7729 70.1456 83.1072 69.5556 83.0286 68.7658C82.9256 67.7293 82.8085 64.1171 85.6277 61.1406C88.2617 58.3598 91.6281 58.1218 92.6913 58.1218C92.7116 58.1218 92.7311 58.1218 92.75 58.122C93.5955 58.1292 94.2753 58.8206 94.2681 59.6664C94.2608 60.5073 93.5766 61.1844 92.7369 61.1844C92.7202 61.1844 92.7023 61.1842 92.6832 61.1842C91.9552 61.1842 89.6504 61.3468 87.8509 63.2464C85.875 65.3326 86.0254 67.9577 86.0755 68.4628C86.1592 69.3043 85.545 70.0545 84.7033 70.138C84.6524 70.143 84.6011 70.1456 84.5505 70.1456Z" fill="#9DE4B6"/>
<path d="M84.5203 70.1454C83.6745 70.1454 82.9891 69.46 82.9891 68.6143V57.5585C82.9891 56.7128 83.6745 56.0274 84.5203 56.0274C85.366 56.0274 86.0516 56.7128 86.0516 57.5585V68.6143C86.0514 69.46 85.366 70.1454 84.5203 70.1454Z" fill="#A3D8B6"/>
<path d="M86.664 98.2061H82.8413C81.0692 93.786 79.2639 87.8771 78.5928 80.7967C78.2158 76.8187 78.2636 73.1797 78.5298 69.9734C78.7235 67.64 80.6755 65.8466 83.0169 65.8466H86.1993C88.6546 65.8466 90.6482 67.8139 90.7009 70.2686C90.7983 74.8128 90.5472 79.9331 89.6689 85.4904C88.9254 90.1946 87.8525 94.4508 86.664 98.2061Z" fill="#EBB080"/>
<path d="M90.7009 70.2687C90.6482 67.8138 88.6546 65.8468 86.1993 65.8468H83.0169C82.5021 65.8468 82.008 65.9379 81.5453 66.098C83.2799 66.6996 84.5346 68.3296 84.5762 70.2687C84.6736 74.813 84.4225 79.9332 83.5442 85.4906C83.0216 88.7969 82.336 91.881 81.562 94.7266C81.9795 95.9707 82.4114 97.133 82.8415 98.2061H86.6642C87.8527 94.4508 88.9255 90.1944 89.6691 85.4906C90.5472 79.9332 90.7983 74.813 90.7009 70.2687Z" fill="#E89E61"/>
<path d="M90.7172 71.4611H86.573C85.7273 71.4611 85.0419 72.1465 85.0419 72.9922C85.0419 73.8379 85.7273 74.5235 86.573 74.5235H90.6858C90.7154 73.4774 90.7246 72.4567 90.7172 71.4611Z" fill="#E58B42"/>
<path d="M90.3981 79.5287C90.35 79.524 90.3016 79.5212 90.2523 79.5212H86.5732C85.7275 79.5212 85.0421 80.2066 85.0421 81.0525C85.0421 81.8985 85.7275 82.5837 86.5732 82.5837H90.0768C90.2042 81.5482 90.311 80.5293 90.3981 79.5287Z" fill="#E58B42"/>
<path d="M78.3526 75.4912C78.3433 75.4912 78.3343 75.4924 78.325 75.4926C78.3325 76.485 78.3655 77.5063 78.426 78.5536H82.4808C83.3265 78.5536 84.0121 77.8682 84.0121 77.0225C84.0121 76.1768 83.3267 75.4912 82.4808 75.4912H78.3526Z" fill="#EFC19C"/>
<path d="M86.9046 103H78.4815C77.1757 103 76.1169 101.941 76.1169 100.635V88.9731C76.1169 87.6673 77.1755 86.6085 78.4815 86.6085H86.9046C89.9994 86.6085 92.5082 89.1173 92.5082 92.2122V97.3962C92.5082 100.491 89.9992 103 86.9046 103Z" fill="#FFE6D1"/>
<path d="M86.9043 86.6087H80.7795C83.8743 86.6087 86.3831 89.1175 86.3831 92.2124V97.3964C86.3831 100.491 83.8743 103 80.7795 103H86.9043C89.9992 103 92.508 100.491 92.508 97.3964V92.2124C92.508 89.1175 89.9992 86.6087 86.9043 86.6087Z" fill="#F5CCAB"/>
<path d="M70.5959 103V69.5868L64.471 67.5257V77.178C64.471 79.4331 62.6429 81.2612 60.3878 81.2612H30.8246C28.5694 81.2612 26.7414 79.4331 26.7414 77.178V67.5257L20.6165 69.5868V103H70.5959Z" fill="#CDF0A0"/>
<path d="M70.5958 69.5868L64.4709 67.526V72.6492L68.2461 73.9194C69.0794 74.1999 69.8646 74.5682 70.5958 75.009V69.5868Z" fill="#C5E898"/>
</g>
<defs>
<clipPath id="clip0">
<rect width="103" height="103" fill="white"/>
</clipPath>
</defs>
</svg>
