<svg width="95" height="95" viewBox="0 0 95 95" fill="none" xmlns="http://www.w3.org/2000/svg">
<g clip-path="url(#clip0)">
<path d="M79.0304 85.3239V93.3621C79.0304 94.267 78.2974 95 77.3924 95H17.608C16.703 95 15.97 94.267 15.97 93.3621V85.3239C15.97 79.1428 19.6451 73.8175 24.9295 71.4158C22.7734 69.7003 19.4871 67.3945 17.0961 62.4338C13.766 55.5345 14.336 47.3952 18.5784 41.024C20.8838 37.5639 22.1123 33.5018 22.1123 29.3456V20.4741C22.1123 9.16627 31.2786 0 42.5864 0H52.414C63.7219 0 72.8881 9.16627 72.8881 20.4741C72.8881 29.8691 72.6586 31.7089 73.791 35.4448C75.3891 40.7274 77.4997 41.3809 79.1266 46.7568C81.684 55.2073 78.8551 64.4233 71.8849 69.9724L70.0709 71.4158C75.3553 73.8175 79.0304 79.1428 79.0304 85.3239Z" fill="#FFDFBA"/>
<path d="M79.0304 85.3239V93.3621C79.0304 94.2666 78.297 95 77.3924 95H17.608C16.7034 95 15.97 94.2666 15.97 93.3621V85.3239C15.97 76.8963 22.802 70.0563 31.2376 70.0563C32.4927 70.0563 33.6843 69.784 34.7551 69.2968L34.8062 69.4073L46.4976 78.4585C47.0879 78.9155 47.9126 78.9155 48.503 78.4585L60.1942 69.4073L60.2453 69.2968C61.3161 69.784 62.5077 70.0563 63.7628 70.0563C72.1656 70.0563 79.0304 76.8638 79.0304 85.3239Z" fill="#FFAA64"/>
<path d="M66.2193 29.9451C67.0888 29.9946 67.7696 30.7092 67.7696 31.5801V41.3844C67.7696 49.8341 62.5999 57.0758 55.2497 60.1182C41.9585 65.6354 27.2308 55.8342 27.2308 41.3844V31.7226C27.2308 30.7626 28.0531 30.004 29.0092 30.0906C38.8341 30.9815 48.5092 28.5004 56.6335 23.0273C57.5575 22.4048 58.8298 22.8659 59.1215 23.9412C60.1321 27.6663 62.8886 29.7553 66.2193 29.9451Z" fill="#FFEBD2"/>
<path d="M71.8849 69.9724L70.0709 71.4158C68.1484 70.5436 66.0129 70.0564 63.7628 70.0564C59.0888 70.0564 55.2804 66.2819 55.2804 61.5923V60.194L55.2497 60.1182C62.5999 57.0757 67.7696 49.834 67.7696 41.3844V31.5801C67.7696 30.7092 67.0889 29.9946 66.2193 29.9451C62.9091 29.7565 60.1387 27.6902 59.1215 23.9414C58.8298 22.8661 57.5575 22.4051 56.6335 23.0275C48.5145 28.4969 38.8401 30.9821 29.0092 30.0908C28.0531 30.0042 27.2308 30.7628 27.2308 31.7228V41.3846C27.2308 49.8343 32.4005 57.076 39.7508 60.1184L39.7201 60.1942V61.5925C39.7201 66.2813 35.9127 70.0566 31.2376 70.0566C28.9875 70.0566 26.8521 70.5438 24.9295 71.416L23.1155 69.9726C14.3094 62.9557 12.3486 50.3799 18.5785 41.0242C20.8838 37.5641 22.1123 33.502 22.1123 29.3458V20.4741C22.1123 9.16668 31.279 0 42.5864 0H52.414C63.7215 0 72.8882 9.16668 72.8882 20.4741V29.3456C72.8882 33.4969 74.1166 37.5639 76.422 41.024C82.6746 50.4139 80.6577 62.9883 71.8849 69.9724Z" fill="#42434D"/>
<path d="M55.5117 63.5558C50.4675 65.6673 44.9241 65.8311 39.4886 63.5558C39.7663 62.404 39.72 61.6579 39.72 60.194L39.7507 60.1182C44.6813 62.1648 50.3094 62.1689 55.2496 60.1182L55.2804 60.194C55.2804 61.6585 55.2341 62.4044 55.5117 63.5558Z" fill="#FFD6A6"/>
<path d="M61.6632 2.20343C63.754 3.26399 62.8454 6.45529 60.5113 6.23438C59.8678 6.17336 59.2155 6.14224 58.556 6.14224H48.7284C37.421 6.14224 28.2543 15.3089 28.2543 26.6164V29.1077C28.2543 30.5785 27.2306 30.531 27.2306 31.7226C27.2306 42.5375 27.2744 41.8528 27.1157 42.3194C25.5095 47.0445 23.5807 47.7283 22.0158 52.899C21.1635 55.7155 20.9117 58.6158 21.2069 61.4304C21.4479 63.7276 18.2492 64.8264 17.0959 62.4338C13.7895 55.5838 14.3073 47.438 18.5782 41.024C20.8836 37.5639 22.1121 33.5018 22.1121 29.3456V20.4741C22.1121 9.16668 31.2787 0 42.5862 0H52.4138C55.7423 0 58.885 0.794192 61.6632 2.20343Z" fill="#4D4E59"/>
<path d="M43.6144 54.9626C46.6731 57.01 44.3419 61.7457 40.8689 60.5269C33.2349 57.848 27.2308 50.7232 27.2308 41.3842V31.7224C27.2308 30.7622 28.0539 30.0046 29.01 30.0906C29.7946 30.1619 30.6562 30.218 31.5859 30.2464C33.2687 30.2976 34.6015 31.6872 34.6015 33.3708V38.1085C34.6015 45.2388 38.2369 51.3631 43.6144 54.9626Z" fill="#FFF3E4"/>
<path d="M38.183 72.0217C39.1547 72.7739 38.6412 74.3512 37.4124 74.3559C28.7451 74.3883 22.1123 81.3476 22.1123 89.6235V95H17.608C16.7034 95 15.97 94.2666 15.97 93.3621V85.3239C15.97 76.8961 22.8023 70.0563 31.2376 70.0563C32.4927 70.0563 33.6843 69.784 34.7551 69.2968L34.8062 69.4073L38.183 72.0217Z" fill="#FFBD7B"/>
<path d="M56.8172 72.0217C55.8455 72.7739 56.359 74.3512 57.5878 74.3559C66.2551 74.3883 72.8879 81.3476 72.8879 89.6235V95H77.3923C78.2968 95 79.0302 94.2666 79.0302 93.3621V85.3239C79.0302 76.8961 72.198 70.0563 63.7626 70.0563C62.5076 70.0563 61.316 69.784 60.2452 69.2968L60.194 69.4073L56.8172 72.0217Z" fill="#FAA157"/>
</g>
<defs>
<clipPath id="clip0">
<rect width="95" height="95" fill="white"/>
</clipPath>
</defs>
</svg>
